<?xml version="1.0" standalone="no"?>
<!DOCTYPE svg PUBLIC "-//W3C//DTD SVG 20010904//EN"
 "http://www.w3.org/TR/2001/REC-SVG-20010904/DTD/svg10.dtd">
<svg version="1.0" xmlns="http://www.w3.org/2000/svg"
 width="700.000000pt" height="700.000000pt" viewBox="0 0 700.000000 700.000000"
 preserveAspectRatio="xMidYMid meet">
<metadata>
Created by potrace 1.11, written by Peter Selinger 2001-2013
</metadata>
<g transform="translate(0.000000,700.000000) scale(0.100000,-0.100000)"
fill="#000000" stroke="none">
<path d="M3335 6950 c-1353 -70 -2537 -925 -3039 -2195 -99 -250 -174 -546
-213 -840 -24 -183 -24 -647 0 -830 118 -883 534 -1653 1202 -2222 663 -565
1527 -857 2400 -812 678 35 1305 254 1850 647 207 149 522 448 672 639 410
517 652 1091 740 1748 24 183 24 647 0 830 -88 657 -330 1231 -740 1748 -150
191 -465 490 -672 639 -462 333 -1005 549 -1567 623 -94 13 -471 38 -488 33
-3 0 -68 -4 -145 -8z m563 -146 c299 -34 594 -110 867 -221 272 -110 595 -300
830 -487 131 -105 411 -384 512 -513 384 -484 608 -1002 705 -1623 19 -127 22
-183 22 -460 0 -277 -3 -333 -22 -460 -97 -621 -321 -1139 -705 -1623 -101
-129 -381 -408 -512 -513 -502 -399 -1091 -641 -1745 -715 -135 -16 -535 -16
-670 0 -656 74 -1251 319 -1750 720 -139 112 -405 379 -514 516 -385 485 -609
1013 -703 1655 -26 179 -26 661 0 840 94 642 318 1170 703 1655 109 137 375
404 514 516 309 248 703 460 1075 579 267 85 528 132 845 154 101 7 420 -5
548 -20z"/>
<path d="M3255 6724 c-16 -2 -75 -9 -130 -15 -205 -23 -474 -85 -677 -157
-1074 -381 -1873 -1295 -2097 -2398 -84 -414 -86 -860 -5 -1275 246 -1269
1254 -2287 2516 -2543 250 -50 354 -60 653 -60 299 0 403 10 653 60 1299 263
2323 1330 2536 2644 53 329 53 711 0 1040 -167 1026 -825 1916 -1759 2375
-337 166 -617 253 -998 311 -96 15 -615 28 -692 18z m623 -269 c340 -42 634
-131 958 -290 797 -392 1380 -1129 1583 -2005 52 -227 66 -360 66 -660 0 -249
-3 -303 -23 -430 -39 -242 -90 -435 -167 -636 -375 -969 -1228 -1676 -2250
-1863 -190 -35 -303 -44 -530 -44 -227 0 -340 9 -530 44 -493 91 -946 298
-1340 614 -134 107 -341 315 -449 450 -345 433 -549 908 -633 1470 -25 170
-25 620 0 790 100 675 384 1244 852 1710 330 329 703 561 1150 716 239 82 487
130 790 153 93 7 403 -4 523 -19z"/>
<path d="M1950 5290 l0 -40 285 0 285 0 0 -1750 0 -1750 -285 0 -285 0 0 -40
0 -40 1565 0 1565 0 0 566 0 565 -27 -3 c-25 -3 -29 -10 -58 -113 -146 -506
-404 -814 -760 -905 -124 -32 -274 -40 -757 -40 l-448 0 0 1755 0 1755 285 0
285 0 0 40 0 40 -825 0 -825 0 0 -40z"/>
</g>
</svg>
