<?xml version="1.0" encoding="utf-8"?>
<!-- Generator: Adobe Illustrator 16.0.0, SVG Export Plug-In . SVG Version: 6.00 Build 0)  -->
<!DOCTYPE svg PUBLIC "-//W3C//DTD SVG 1.1//EN" "http://www.w3.org/Graphics/SVG/1.1/DTD/svg11.dtd">
<svg version="1.1" id="Layer_1" xmlns="http://www.w3.org/2000/svg" xmlns:xlink="http://www.w3.org/1999/xlink" x="0px" y="0px"
	 width="240px" height="240px" viewBox="0 0 240 240" enable-background="new 0 0 240 240" xml:space="preserve">
<g>
	<path fill="#C13036" d="M120,235.7C56.2,235.7,4.3,183.8,4.3,120C4.3,56.2,56.2,4.3,120,4.3c63.8,0,115.7,51.9,115.7,115.7
		C235.7,183.8,183.8,235.7,120,235.7z M120,8.6C58.6,8.6,8.6,58.6,8.6,120c0,61.4,50,111.4,111.4,111.4c61.4,0,111.4-50,111.4-111.4
		C231.4,58.6,181.4,8.6,120,8.6z"/>
</g>
<g>
	<path fill="#C13036" d="M120.8,54.6c-21.3,0-38.6,17.3-38.6,38.6v11.6h-5.8c-5.3,0-9.7,4.3-9.7,9.7v54.1c0,5.3,4.3,9.6,9.7,9.6
		h88.8c5.3,0,9.7-4.3,9.7-9.6v-54.1c0-5.3-4.3-9.7-9.7-9.7h-5.8V93.3C159.4,72,142.1,54.6,120.8,54.6z M86.1,93.3
		c0-19.2,15.6-34.7,34.7-34.7c19.2,0,34.7,15.6,34.7,34.7v11.6H144V93.3c0-12.8-10.4-23.2-23.2-23.2c-12.8,0-23.2,10.4-23.2,23.2
		v11.6H86.1V93.3z M140.1,104.8h-38.6V93.3c0-10.6,8.7-19.3,19.3-19.3c10.6,0,19.3,8.7,19.3,19.3V104.8z M114.2,135.7L94.9,155H77.2
		l19.3-19.3H114.2z M137.4,135.7L118.1,155h-17.7l19.3-19.3H137.4z M160.6,135.7L141.3,155h-17.7l19.3-19.3H160.6z M171,135.7V155
		h-24.3l19.3-19.3H171z M71.8,155h-1.1v-19.3h20.4L71.8,155z M165.2,174.3H76.4c-3.2,0-5.8-2.6-5.8-5.8v-9.7H171v9.7
		C171,171.7,168.4,174.3,165.2,174.3z M171,114.5v17.4H70.6v-17.4c0-3.2,2.6-5.8,5.8-5.8h88.8C168.4,108.7,171,111.3,171,114.5z"/>
</g>
</svg>
