<?xml version="1.0" encoding="UTF-8" standalone="no"?>
<!-- Generator: Adobe Illustrator 16.0.0, SVG Export Plug-In . SVG Version: 6.00 Build 0)  -->

<svg
   xmlns:dc="http://purl.org/dc/elements/1.1/"
   xmlns:cc="http://creativecommons.org/ns#"
   xmlns:rdf="http://www.w3.org/1999/02/22-rdf-syntax-ns#"
   xmlns:svg="http://www.w3.org/2000/svg"
   xmlns="http://www.w3.org/2000/svg"
   xmlns:sodipodi="http://sodipodi.sourceforge.net/DTD/sodipodi-0.dtd"
   xmlns:inkscape="http://www.inkscape.org/namespaces/inkscape"
   version="1.1"
   id="Layer_1"
   x="0px"
   y="0px"
   width="240"
   height="240"
   viewBox="0 0 240 240"
   enable-background="new 0 0 800 240"
   xml:space="preserve"
   inkscape:version="0.91 r13725"
   sodipodi:docname="logo-icononly.jpg"><metadata
     id="metadata81"><rdf:RDF><cc:Work
         rdf:about=""><dc:format>image/svg+xml</dc:format><dc:type
           rdf:resource="http://purl.org/dc/dcmitype/StillImage" /><dc:title /></cc:Work></rdf:RDF></metadata><defs
     id="defs79" /><sodipodi:namedview
     pagecolor="#ffffff"
     bordercolor="#666666"
     borderopacity="1"
     objecttolerance="10"
     gridtolerance="10"
     guidetolerance="10"
     inkscape:pageopacity="0"
     inkscape:pageshadow="2"
     inkscape:window-width="1351"
     inkscape:window-height="688"
     id="namedview77"
     showgrid="false"
     inkscape:zoom="1.545"
     inkscape:cx="36.245955"
     inkscape:cy="120"
     inkscape:window-x="451"
     inkscape:window-y="170"
     inkscape:window-maximized="0"
     inkscape:current-layer="g3" /><g
     id="g3"><g
       id="g5"
       transform="translate(-3.1779934,-1.9783369e-7)"><path
         d="M 123.7,238.5 C 58.3,238.5 5.2,185.3 5.2,120 5.2,54.7 58.3,1.5 123.7,1.5 189,1.5 242.2,54.7 242.2,120 c 0,65.3 -53.2,118.5 -118.5,118.5 z m 0,-232.6 C 60.8,5.9 9.6,57.1 9.6,120 c 0,62.9 51.2,114.1 114.1,114.1 62.9,0 114.1,-51.2 114.1,-114.1 C 237.8,57.1 186.6,5.9 123.7,5.9 Z"
         id="path7"
         inkscape:connector-curvature="0"
         style="fill:#c13036" /><g
         id="g9"><path
           d="m 89.5,180.1 0,-120.2 -19.5,0 0,-2.5 56.6,0 0,2.5 -19.5,0 0,120.3 31.3,0 c 10.3,0 18.4,-3.2 24.3,-9.7 5.9,-6.4 10.1,-15.2 12.8,-26.4 l 1.9,0 0,38.5 -107.4,0 0,-2.5 19.5,0 z"
           id="path11"
           inkscape:connector-curvature="0"
           style="fill:#c13036" /></g><path
         d="M 123.7,230.8 C 62.6,230.8 12.9,181.1 12.9,119.9 12.8,58.9 62.6,9.1 123.7,9.1 c 61.1,0 110.8,49.8 110.8,110.9 0,61.1 -49.7,110.8 -110.8,110.8 z m 0,-212.9 C 67.4,17.9 21.6,63.7 21.6,120 21.6,176.3 67.4,222.1 123.7,222.1 180,222.1 225.8,176.3 225.8,120 225.8,63.7 180,17.9 123.7,17.9 Z"
         id="path13"
         inkscape:connector-curvature="0"
         style="fill:#c13036" /></g></g></svg>