<?xml version="1.0" encoding="utf-8"?>
<!-- Generator: Adobe Illustrator 16.0.0, SVG Export Plug-In . SVG Version: 6.00 Build 0)  -->
<!DOCTYPE svg PUBLIC "-//W3C//DTD SVG 1.1//EN" "http://www.w3.org/Graphics/SVG/1.1/DTD/svg11.dtd">
<svg version="1.1" id="Layer_1" xmlns="http://www.w3.org/2000/svg" xmlns:xlink="http://www.w3.org/1999/xlink" x="0px" y="0px"
	 width="800px" height="240px" viewBox="0 0 800 240" enable-background="new 0 0 800 240" xml:space="preserve">
<g>
	<g>
		<path fill="#C13036" d="M123.7,238.5C58.3,238.5,5.2,185.3,5.2,120C5.2,54.7,58.3,1.5,123.7,1.5C189,1.5,242.2,54.7,242.2,120
			C242.2,185.3,189,238.5,123.7,238.5z M123.7,5.9C60.8,5.9,9.6,57.1,9.6,120c0,62.9,51.2,114.1,114.1,114.1
			c62.9,0,114.1-51.2,114.1-114.1C237.8,57.1,186.6,5.9,123.7,5.9z"/>
		<g>
			<path fill="#C13036" d="M89.5,180.1V59.9H70v-2.5h56.6v2.5h-19.5v120.3h31.3c10.3,0,18.4-3.2,24.3-9.7
				c5.9-6.4,10.1-15.2,12.8-26.4h1.9v38.5H70v-2.5H89.5z"/>
		</g>
		<path fill="#C13036" d="M123.7,230.8c-61.1,0-110.8-49.7-110.8-110.9C12.8,58.9,62.6,9.1,123.7,9.1S234.5,58.9,234.5,120
			C234.5,181.1,184.8,230.8,123.7,230.8z M123.7,17.9C67.4,17.9,21.6,63.7,21.6,120c0,56.3,45.8,102.1,102.1,102.1
			c56.3,0,102.1-45.8,102.1-102.1C225.8,63.7,180,17.9,123.7,17.9z"/>
	</g>
	<g>
		<path fill="#C13036" d="M313.2,145.1V56.9h-14.3v-1.8h41.5v1.8h-14.3v88.3h23c7.6,0,13.5-2.4,17.8-7.1c4.3-4.7,7.4-11.2,9.4-19.4
			h1.4V147h-78.8v-1.8H313.2z"/>
		<path fill="#C13036" d="M441.1,147.8c-1.5,0.6-3.4,1-5.7,1c-4.1,0-7.1-0.9-9-2.6c-1.8-1.8-3.1-4.2-3.8-7.4h-0.3
			c-0.3,0.8-0.8,1.7-1.4,2.9c-0.6,1.2-1.5,2.3-2.8,3.4c-1.2,1.1-2.9,2-5,2.7c-2.1,0.7-4.7,1.1-7.9,1.1c-3.6,0-6.5-0.4-8.6-1.2
			c-2.2-0.8-3.8-1.8-5-3c-1.2-1.2-2-2.6-2.4-4.1c-0.4-1.5-0.6-2.9-0.6-4.2c0-3,0.6-5.4,1.8-7.2c1.2-1.8,2.8-3.2,4.7-4.3
			c1.9-1.1,4.1-2,6.5-2.6s4.8-1.4,7.2-2.2c2.8-0.9,5.2-1.8,7-2.5c1.9-0.7,3.3-1.5,4.3-2.5c1-1,1.7-2.2,2.1-3.7
			c0.4-1.5,0.6-3.5,0.6-6.1c0-2.1-0.1-3.9-0.4-5.6c-0.3-1.6-0.7-3-1.4-4.2c-0.7-1.2-1.7-2-3-2.6c-1.3-0.6-3-0.9-5.2-0.9
			c-2.8,0-5.2,0.5-7,1.5c-1.9,1-2.8,2.6-2.8,4.8c0,1.5,0.1,2.9,0.4,4.3c0.3,1.4,0.4,2.5,0.4,3.2c0,1.2-0.4,2.2-1.3,3
			c-0.9,0.8-2.1,1.2-3.7,1.2c-2.8,0-4.6-0.5-5.3-1.5c-0.7-1-1-2.4-1-4c0-1.9,0.4-3.7,1.3-5.4c0.9-1.7,2.1-3.2,3.8-4.6
			c1.7-1.3,3.8-2.4,6.3-3.2c2.5-0.8,5.4-1.2,8.7-1.2c4,0,7.3,0.5,9.9,1.5c2.7,1,4.8,2.3,6.4,4c1.6,1.7,2.8,3.6,3.5,5.7
			c0.7,2.1,1,4.3,1,6.6v32.1c0,2.5,0.4,4.2,1.2,5c0.8,0.9,1.9,1.3,3.4,1.3c0.9,0,1.9-0.2,3-0.5c1-0.3,2-0.9,3-1.5l1,1.4
			C444,146.4,442.6,147.1,441.1,147.8z M422.2,115.3c-0.2,1.1-1.6,2.2-4.3,3.4l-9.7,3.9c-2.8,1.1-4.9,2.7-6.3,4.7
			c-1.5,2-2.2,4.5-2.2,7.5c0,1.3,0.1,2.6,0.4,4c0.3,1.4,0.7,2.6,1.4,3.7c0.7,1.1,1.7,2,2.9,2.6c1.2,0.7,2.9,1,4.8,1
			c2.8,0,5.1-0.6,6.9-1.8c1.8-1.2,3.1-2.7,4-4.5c0.9-1.8,1.5-3.8,1.8-5.9c0.3-2.1,0.5-4,0.5-5.7v-12.9H422.2z"/>
		<path fill="#C13036" d="M458,145.1V93.4H448v-1.8h20.8v13.5h0.3c1.8-5.2,4.4-8.9,7.8-11.4c3.4-2.4,7.5-3.6,12.3-3.6
			c4.3,0,8.1,0.9,11.4,2.8c3.3,1.9,5.5,5,6.5,9.4h0.3c0.6-1.5,1.4-3.1,2.5-4.5c1-1.5,2.3-2.8,3.9-3.9c1.5-1.2,3.4-2.1,5.5-2.8
			c2.1-0.7,4.5-1,7.2-1c12.6,0,18.8,6.4,18.8,19.2v35.7h9.9v1.8h-31v-1.8h9.9v-43.9c0-2.9-0.8-5.2-2.4-6.8c-1.6-1.6-3.8-2.4-6.5-2.4
			c-2.2,0-4.3,0.4-6.5,1.2c-2.2,0.8-4.1,2-5.8,3.7c-1.7,1.6-3.1,3.7-4.2,6.3c-1.1,2.6-1.6,5.6-1.6,9v32.9h9.9v1.8h-31v-1.8h9.9
			v-42.1c0-3.8-0.8-6.6-2.3-8.4c-1.5-1.8-3.6-2.7-6.2-2.7c-1.8,0-3.8,0.5-5.9,1.4c-2.1,0.9-4.1,2.3-6,4.3c-1.8,1.9-3.4,4.5-4.6,7.5
			c-1.2,3.1-1.9,6.9-1.9,11.4v28.6h9.9v1.8h-31v-1.8H458z"/>
		<path fill="#C13036" d="M571.2,145.1V55.7h-9.9v-1.8h21v48h0.3c1.2-3.4,3.3-6.2,6.2-8.5c2.9-2.3,6.8-3.5,11.5-3.5
			c3.7,0,7.2,0.8,10.4,2.4c3.3,1.6,6.1,3.7,8.6,6.3c2.5,2.6,4.5,5.7,5.9,9.2c1.5,3.5,2.2,7.2,2.2,11.1c0,4-0.8,7.7-2.3,11.3
			c-1.5,3.6-3.5,6.7-6.1,9.5c-2.6,2.8-5.6,4.9-9,6.6c-3.4,1.6-7,2.4-10.8,2.4c-2.9,0-5.4-0.5-7.4-1.5c-2-1-3.7-2.2-5-3.5
			c-1.3-1.4-2.3-2.8-3-4.3c-0.7-1.5-1.2-2.7-1.5-3.7h-0.3V147h-20.8v-1.8H571.2z M613.9,106.8c-0.4-3.1-1.2-5.8-2.3-8.1
			c-1.1-2.2-2.6-4-4.5-5.2c-1.9-1.2-4.4-1.8-7.4-1.8c-3.2,0-5.8,0.6-7.9,1.7c-2.1,1.1-3.7,2.5-5,4.3c-0.9,1.2-1.7,2.5-2.3,3.9
			c-0.6,1.4-1,3-1.4,4.9c-0.3,1.9-0.6,4.1-0.7,6.5c-0.1,2.5-0.2,5.4-0.2,8.7c0,2.8,0.2,5.8,0.6,8.8c0.4,3,1.2,5.7,2.5,8.2
			c1.2,2.4,2.9,4.4,5.1,6c2.2,1.5,5.1,2.3,8.7,2.3c3.5,0,6.3-0.7,8.4-2.1c2.1-1.4,3.6-3.4,4.6-5.9c1-2.6,1.7-5.7,1.9-9.4
			c0.3-3.7,0.4-7.7,0.4-12.2C614.6,113.4,614.4,109.9,613.9,106.8z"/>
		<path fill="#C13036" d="M653,117.6c0,0.9-0.1,2-0.1,3.4c0,2.8,0.2,5.8,0.5,8.9c0.3,3.1,1.1,5.9,2.3,8.4c1.2,2.5,2.9,4.6,5.2,6.2
			c2.3,1.6,5.3,2.5,9.1,2.5c3.8,0,6.9-0.6,9.4-1.7c2.5-1.1,4.4-2.5,5.8-4.1c1.4-1.6,2.5-3.2,3.2-4.8c0.7-1.6,1.2-3,1.5-4l1.9,0.4
			c-0.3,0.9-0.8,2.3-1.5,4.1c-0.7,1.8-1.9,3.5-3.5,5.3c-1.6,1.8-3.7,3.3-6.5,4.6c-2.7,1.3-6.2,2-10.5,2c-4.3,0-8.3-0.7-11.9-2.1
			c-3.7-1.4-6.8-3.4-9.5-5.9c-2.7-2.6-4.7-5.7-6.2-9.2c-1.5-3.6-2.2-7.6-2.2-11.9c0-3.8,0.8-7.5,2.3-11c1.5-3.6,3.6-6.7,6.2-9.5
			c2.6-2.8,5.7-5,9.2-6.6c3.5-1.7,7.3-2.5,11.4-2.5c2.4,0,5,0.4,7.7,1.3c2.8,0.9,5.3,2.3,7.7,4.2c2.4,1.9,4.3,4.5,5.9,7.7
			c1.6,3.2,2.4,7.1,2.4,11.9H653C653,115.8,653,116.7,653,117.6z M679.9,109.8v-3.2c0-2.9-0.3-5.3-0.8-7.2c-0.6-1.9-1.3-3.4-2.3-4.5
			c-1-1.1-2.2-1.9-3.6-2.4c-1.4-0.5-2.9-0.7-4.6-0.7c-2.9,0-5.3,0.6-7.2,1.7c-1.9,1.2-3.4,2.7-4.5,4.7c-1.1,2-2,4.3-2.5,6.8
			c-0.6,2.6-0.9,5.3-1.1,8.1h26.5C679.8,111.9,679.9,110.8,679.9,109.8z"/>
		<path fill="#C13036" d="M712.1,145.1V93.4h-9.9v-1.8h20.8v13h0.3c0.3-1.3,0.9-2.8,1.7-4.4c0.8-1.6,1.8-3.2,3.2-4.7
			c1.4-1.5,3-2.8,5-3.8c1.9-1,4.3-1.6,7-1.6c2,0,3.7,0.3,5.2,1c1.5,0.6,2.7,1.5,3.6,2.5c0.9,1,1.6,2.1,2.1,3.4
			c0.4,1.3,0.6,2.6,0.6,3.9c0,2.8-0.6,4.7-1.9,5.7c-1.3,0.9-2.8,1.4-4.5,1.4c-3.8,0-5.7-1.2-5.7-3.6c0-0.8,0.1-1.4,0.3-1.9
			c0.2-0.5,0.4-0.9,0.6-1.4c0.2-0.5,0.4-1,0.6-1.6c0.2-0.6,0.3-1.5,0.3-2.6c0-2.8-1.5-4.1-4.5-4.1c-1.4,0-2.8,0.5-4.4,1.6
			c-1.5,1-3,2.5-4.3,4.5c-1.3,2-2.5,4.4-3.4,7.2c-0.9,2.8-1.4,6-1.4,9.6v29.5h11.2v1.8h-32.3v-1.8H712.1z"/>
		<path fill="#C13036" d="M763.3,91.6V75c0.7,0.3,1.3,0.5,1.9,0.6c0.6,0.2,1.6,0.3,3.1,0.3c1.3,0,2.4-0.1,3.4-0.5
			c0.9-0.3,1.8-0.8,2.7-1.5v17.7h18.3v1.8h-18.3v42.2c0,2.4,0.2,4.4,0.7,5.9c0.5,1.5,1.1,2.7,1.9,3.5c0.8,0.8,1.6,1.4,2.5,1.6
			c0.9,0.3,1.8,0.4,2.6,0.4c3,0,5.4-1.1,7.3-3.3s3-4.7,3.5-7.5l1.8,0.6c-0.3,1.1-0.6,2.4-1.2,3.7c-0.5,1.4-1.3,2.7-2.4,3.9
			c-1.1,1.2-2.5,2.3-4.2,3.1c-1.7,0.8-3.9,1.2-6.5,1.2c-6.4,0-10.9-1.2-13.5-3.7c-2.5-2.5-3.8-6-3.8-10.6v-41h-9.9v-1.8H763.3z"/>
		<path fill="#C13036" d="M301.5,188h-3.3v-24.3h3.3V188z"/>
		<path fill="#C13036" d="M326.1,188h-3.3l-11.7-18.8l-0.1,0V188h-3.3v-24.3h3.3l11.7,18.8l0.1,0v-18.7h3.3V188z"/>
		<path fill="#C13036" d="M348.1,166.3h-7.8V188H337v-21.7h-7.8v-2.6h18.9V166.3z"/>
		<path fill="#C13036" d="M366.1,176.7H355v8.7h12.8v2.6h-16.1v-24.3h16v2.6H355v7.9h11.1V176.7z"/>
		<path fill="#C13036" d="M375,185.4h11.5v2.6h-14.8v-24.3h3.3V185.4z"/>
		<path fill="#C13036" d="M393.5,185.4H405v2.6h-14.8v-24.3h3.3V185.4z"/>
		<path fill="#C13036" d="M423.1,176.7h-11.1v8.7h12.8v2.6h-16.1v-24.3h16v2.6h-12.7v7.9h11.1V176.7z"/>
		<path fill="#C13036" d="M445.8,180.2l0,0.1c0,2.3-0.8,4.2-2.4,5.7c-1.6,1.5-3.8,2.3-6.5,2.3c-2.8,0-5-1-6.7-2.9
			c-1.7-1.9-2.6-4.4-2.6-7.4v-4.3c0-3,0.9-5.5,2.6-7.4c1.7-2,4-2.9,6.7-2.9c2.8,0,4.9,0.7,6.6,2.2c1.6,1.5,2.4,3.4,2.4,5.8l0,0.1
			h-3.2c0-1.7-0.5-3.1-1.5-4c-1-1-2.4-1.5-4.2-1.5c-1.8,0-3.3,0.7-4.4,2.2c-1.1,1.5-1.6,3.3-1.6,5.5v4.4c0,2.2,0.5,4.1,1.6,5.5
			c1.1,1.5,2.6,2.2,4.4,2.2c1.8,0,3.2-0.5,4.2-1.5c1-1,1.5-2.3,1.5-4.1H445.8z"/>
		<path fill="#C13036" d="M466.3,166.3h-7.8V188h-3.3v-21.7h-7.8v-2.6h18.9V166.3z"/>
		<path fill="#C13036" d="M487.6,163.7v16.5c0,2.7-0.9,4.7-2.6,6.1c-1.7,1.4-4,2.1-6.7,2.1c-2.7,0-4.8-0.7-6.5-2.1
			c-1.7-1.4-2.5-3.4-2.5-6.1v-16.5h3.3v16.5c0,1.8,0.5,3.2,1.6,4.2c1,1,2.4,1.4,4.1,1.4c1.8,0,3.3-0.5,4.4-1.4
			c1.1-1,1.7-2.3,1.7-4.2v-16.5H487.6z"/>
		<path fill="#C13036" d="M505.8,181.7h-10.2l-2.3,6.3H490l9.4-24.3h2.8l9.3,24.3h-3.4L505.8,181.7z M496.7,179h8.2l-4-11.1h-0.1
			L496.7,179z"/>
		<path fill="#C13036" d="M518.1,185.4h11.5v2.6h-14.8v-24.3h3.3V185.4z"/>
		<path fill="#C13036" d="M545.1,178.3v9.8h-3.3v-24.3h9.3c2.6,0,4.6,0.7,6,2c1.4,1.3,2.2,3.1,2.2,5.3c0,2.2-0.7,4-2.2,5.3
			c-1.4,1.3-3.5,2-6,2H545.1z M545.1,175.7h6c1.6,0,2.9-0.4,3.7-1.3c0.8-0.9,1.2-2,1.2-3.3c0-1.3-0.4-2.5-1.2-3.4
			c-0.8-0.9-2-1.4-3.7-1.4h-6V175.7z"/>
		<path fill="#C13036" d="M567,177.5V188h-3.3v-24.3h8.8c2.7,0,4.7,0.6,6.1,1.8c1.4,1.2,2.1,2.9,2.1,5.1c0,1.3-0.3,2.3-1,3.3
			c-0.7,0.9-1.6,1.7-2.9,2.2c1.3,0.4,2.3,1.1,2.9,2.1c0.6,1,0.9,2.2,0.9,3.6v2.3c0,0.8,0.1,1.4,0.3,2c0.2,0.6,0.5,1.1,0.9,1.5v0.4
			h-3.4c-0.4-0.4-0.7-0.9-0.8-1.7c-0.1-0.7-0.2-1.5-0.2-2.3v-2.2c0-1.3-0.4-2.4-1.2-3.2s-1.8-1.2-3.1-1.2H567z M567,174.9h5.2
			c1.9,0,3.2-0.4,4-1.1c0.8-0.7,1.2-1.8,1.2-3.2c0-1.4-0.4-2.4-1.2-3.2c-0.8-0.8-2-1.1-3.7-1.1H567V174.9z"/>
		<path fill="#C13036" d="M604.8,178c0,3-0.9,5.4-2.8,7.4c-1.8,2-4.2,2.9-7.2,2.9c-2.8,0-5.2-1-6.9-2.9c-1.8-2-2.7-4.4-2.7-7.4v-4.3
			c0-3,0.9-5.4,2.7-7.4c1.8-2,4.1-3,6.9-3c2.9,0,5.3,1,7.2,2.9c1.8,2,2.8,4.4,2.8,7.4V178z M601.5,173.7c0-2.2-0.6-4.1-1.8-5.5
			c-1.2-1.4-2.8-2.1-4.8-2.1c-1.9,0-3.4,0.7-4.6,2.1c-1.1,1.4-1.7,3.2-1.7,5.5v4.4c0,2.3,0.6,4.1,1.7,5.5c1.1,1.4,2.7,2.1,4.6,2.1
			c2,0,3.7-0.7,4.9-2.1c1.2-1.4,1.8-3.3,1.8-5.5V173.7z"/>
		<path fill="#C13036" d="M613,178.3v9.8h-3.3v-24.3h9.3c2.6,0,4.6,0.7,6,2c1.4,1.3,2.2,3.1,2.2,5.3c0,2.2-0.7,4-2.2,5.3
			c-1.4,1.3-3.5,2-6,2H613z M613,175.7h6c1.6,0,2.9-0.4,3.7-1.3c0.8-0.9,1.2-2,1.2-3.3c0-1.3-0.4-2.5-1.2-3.4
			c-0.8-0.9-2-1.4-3.7-1.4h-6V175.7z"/>
		<path fill="#C13036" d="M646,176.7h-11.1v8.7h12.8v2.6h-16.1v-24.3h16v2.6h-12.7v7.9H646V176.7z"/>
		<path fill="#C13036" d="M654.9,177.5V188h-3.3v-24.3h8.8c2.7,0,4.7,0.6,6.1,1.8c1.4,1.2,2.1,2.9,2.1,5.1c0,1.3-0.3,2.3-1,3.3
			c-0.7,0.9-1.6,1.7-2.9,2.2c1.3,0.4,2.3,1.1,2.9,2.1c0.6,1,0.9,2.2,0.9,3.6v2.3c0,0.8,0.1,1.4,0.3,2c0.2,0.6,0.5,1.1,0.9,1.5v0.4
			h-3.4c-0.4-0.4-0.7-0.9-0.8-1.7c-0.1-0.7-0.2-1.5-0.2-2.3v-2.2c0-1.3-0.4-2.4-1.2-3.2c-0.8-0.8-1.8-1.2-3.1-1.2H654.9z
			 M654.9,174.9h5.2c1.9,0,3.2-0.4,4-1.1c0.8-0.7,1.2-1.8,1.2-3.2c0-1.4-0.4-2.4-1.2-3.2c-0.8-0.8-2-1.1-3.7-1.1h-5.5V174.9z"/>
		<path fill="#C13036" d="M689.9,166.3h-7.8V188h-3.3v-21.7H671v-2.6h18.9V166.3z"/>
		<path fill="#C13036" d="M701.2,176l6.4-12.4h3.8l-8.5,15.8v8.6h-3.3v-8.8l-8.4-15.6h3.8L701.2,176z"/>
		<path fill="#C13036" d="M726.4,185.4h11.5v2.6h-14.8v-24.3h3.3V185.4z"/>
		<path fill="#C13036" d="M755.1,181.7h-10.2l-2.3,6.3h-3.4l9.4-24.3h2.8l9.3,24.3h-3.4L755.1,181.7z M745.9,179h8.2l-4-11.1H750
			L745.9,179z"/>
		<path fill="#C13036" d="M769,179.6l0.5,3l0.1,0l0.7-3.1l4.5-15.9h2.9l4.5,15.9l0.7,3.1h0.1l0.5-3.1l3.6-15.9h3.3l-5.9,24.3h-2.9
			l-4.8-16.9l-0.4-2.2h-0.1l-0.4,2.2l-4.9,16.9h-2.9l-5.8-24.3h3.3L769,179.6z"/>
	</g>
</g>
</svg>
